PathFileType	4	(X/Y/Z)	 control3min.trc
DataRate	CameraRate	NumFrames	NumMarkers	Units	OrigDataRate	OrigDataStartFrame	OrigNumFrames
200	200	8	42	m	200	251	1000
Frame#	Time	C7			LSH			RSH			MAN			RASI			LASI			HIPR			HIPL			RPSI			LPSI			COX			RTHI1			RTHI2			RTHI3			RTHI4			RLKN			RMKN			RSHA1			RSHA2			RSHA3			RSHA4			RLMAL			RHEEL			RMET5			RMET1			RTOE			LTHI1			LTHI2			LTHI3			LTHI4			LLKN			LMKN			LSHA1			LSHA2			LSHA3			LSHA4			LLMAL			LMMAL			LHEEL			LMET5			LMET1			LTOE			
		X1	Y1	Z1	X2	Y2	Z2	X3	Y3	Z3	X4	Y4	Z4	X5	Y5	Z5	X6	Y6	Z6	X7	Y7	Z7	X8	Y8	Z8	X9	Y9	Z9	X10	Y10	Z10	X11	Y11	Z11	X12	Y12	Z12	X13	Y13	Z13	X14	Y14	Z14	X15	Y15	Z15	X16	Y16	Z16	X17	Y17	Z17	X18	Y18	Z18	X19	Y19	Z19	X20	Y20	Z20	X21	Y21	Z21	X22	Y22	Z22	X23	Y23	Z23	X24	Y24	Z24	X25	Y25	Z25	X26	Y26	Z26	X27	Y27	Z27	X28	Y28	Z28	X29	Y29	Z29	X30	Y30	Z30	X31	Y31	Z31	X32	Y32	Z32	X33	Y33	Z33	X34	Y34	Z34	X35	Y35	Z35	X36	Y36	Z36	X37	Y37	Z37	X38	Y38	Z38	X39	Y39	Z39	X40	Y40	Z40	X41	Y41	Z41	X42	Y42	Z42	
251	1.2550	-0.302763	1.406294	-0.518536	-0.221846	1.416030	-0.667371	-0.228952	1.395948	-0.363551	-0.173136	1.362357	-0.522690	-0.151755	0.932000	-0.413899	-0.161633	0.931488	-0.648058	-0.197451	1.011747	-0.395051	-0.203519	1.008374	-0.666244	-0.312219	0.964830	-0.479490	-0.317584	0.964277	-0.567571	-0.321147	0.961501	-0.526142	-0.227937	0.763634	-0.350045	-0.214215	0.702976	-0.351679	-0.144887	0.726582	-0.351990	-0.166244	0.782984	-0.351308	-0.172758	0.495160	-0.363436	-0.164674	0.479710	-0.483241	-0.264947	0.375428	-0.346455	-0.283367	0.337464	-0.355998	-0.226202	0.316294	-0.350193	-0.211620	0.353785	-0.345387	-0.289862	0.159247	-0.377940	-0.340665	0.161367	-0.420761	-0.220877	0.056743	-0.367816	-0.188428	0.057775	-0.430267	-0.168667	0.046352	-0.426898	-0.245327	0.754069	-0.708259	-0.227498	0.697518	-0.711426	-0.158768	0.720282	-0.716636	-0.184303	0.775964	-0.714234	-0.178197	0.501845	-0.705783	-0.169328	0.480459	-0.589981	-0.281129	0.349386	-0.707111	-0.295675	0.312937	-0.696939	-0.235961	0.294424	-0.700643	-0.228581	0.336879	-0.709794	-0.313494	0.167798	-0.679842	-0.284912	0.179951	-0.605674	-0.361810	0.177569	-0.637909	-0.256425	0.061306	-0.689898	-0.222167	0.058244	-0.622521	-0.208051	0.045168	-0.634732	
252	1.2600	-0.302639	1.400192	-0.518656	-0.221430	1.409713	-0.667657	-0.228498	1.389493	-0.363470	-0.173000	1.356043	-0.522765	-0.152213	0.926095	-0.413796	-0.161762	0.925237	-0.647806	-0.197748	1.006051	-0.395073	-0.203465	1.002276	-0.665979	-0.312520	0.959464	-0.479459	-0.317793	0.958739	-0.567607	-0.321445	0.956051	-0.526133	-0.227841	0.757782	-0.349745	-0.213953	0.697163	-0.351419	-0.144699	0.720950	-0.352045	-0.166197	0.777296	-0.351288	-0.171416	0.489305	-0.363111	-0.163373	0.473999	-0.482856	-0.264103	0.369905	-0.346270	-0.282748	0.332078	-0.355852	-0.225726	0.310552	-0.350036	-0.210911	0.347955	-0.345192	-0.290893	0.154236	-0.378150	-0.341854	0.156694	-0.420979	-0.222821	0.050850	-0.368305	-0.190005	0.052559	-0.431627	-0.170112	0.041848	-0.428650	-0.245120	0.748055	-0.708330	-0.227140	0.691562	-0.711603	-0.158460	0.714511	-0.716638	-0.184143	0.770124	-0.714154	-0.176913	0.495944	-0.706319	-0.167812	0.474431	-0.590618	-0.280762	0.344124	-0.707356	-0.295582	0.307764	-0.697034	-0.236074	0.288762	-0.700743	-0.228316	0.331155	-0.709988	-0.315043	0.163090	-0.679827	-0.286261	0.175083	-0.605650	-0.363349	0.173101	-0.637698	-0.258802	0.056110	-0.689830	-0.224700	0.053503	-0.622069	-0.210502	0.041500	-0.634090	
253	1.2650	-0.302503	1.393889	-0.518778	-0.220972	1.403163	-0.667946	-0.228068	1.382814	-0.363409	-0.172825	1.349485	-0.522839	-0.152658	0.919942	-0.413640	-0.161867	0.918760	-0.647584	-0.198066	1.000111	-0.395052	-0.203399	0.995932	-0.665723	-0.312843	0.953853	-0.479412	-0.318013	0.952943	-0.567618	-0.321757	0.950343	-0.526102	-0.227744	0.751694	-0.349370	-0.213688	0.691105	-0.351093	-0.144511	0.715088	-0.352051	-0.166153	0.771378	-0.351232	-0.170015	0.483191	-0.362806	-0.162100	0.468038	-0.482469	-0.263263	0.364170	-0.346028	-0.282190	0.326495	-0.355574	-0.225328	0.304559	-0.349809	-0.210243	0.341853	-0.344972	-0.292544	0.149277	-0.378392	-0.343646	0.151832	-0.421147	-0.224506	0.046147	-0.368213	-0.190999	0.048402	-0.432575	-0.170834	0.038470	-0.430075	-0.244946	0.741834	-0.708408	-0.226818	0.685395	-0.711828	-0.158187	0.708528	-0.716692	-0.184009	0.764077	-0.714087	-0.175612	0.489809	-0.706815	-0.166424	0.468188	-0.591190	-0.280367	0.338636	-0.707804	-0.295497	0.302381	-0.697362	-0.236181	0.282868	-0.700867	-0.228022	0.325180	-0.710209	-0.316910	0.158319	-0.679941	-0.288032	0.170094	-0.605617	-0.365359	0.168438	-0.637677	-0.261346	0.051065	-0.689928	-0.226998	0.049387	-0.621086	-0.212532	0.038807	-0.632834	
254	1.2700	-0.302357	1.387398	-0.518907	-0.220496	1.396415	-0.668242	-0.227683	1.375957	-0.363336	-0.172603	1.342708	-0.522914	-0.153080	0.913557	-0.413424	-0.161953	0.912081	-0.647398	-0.198408	0.993923	-0.394974	-0.203337	0.989343	-0.665490	-0.313196	0.947985	-0.479350	-0.318256	0.946879	-0.567600	-0.322087	0.944367	-0.526048	-0.227652	0.745365	-0.348931	-0.213417	0.684810	-0.350694	-0.144322	0.708996	-0.351972	-0.166117	0.765222	-0.351115	-0.168532	0.476806	-0.362515	-0.160857	0.461848	-0.482054	-0.262514	0.358249	-0.345691	-0.281787	0.320772	-0.355165	-0.225140	0.298319	-0.349577	-0.209714	0.335502	-0.344758	-0.295021	0.144503	-0.378727	-0.346173	0.146910	-0.421257	-0.225707	0.042699	-0.368205	-0.192047	0.045436	-0.433064	-0.171554	0.036357	-0.431548	-0.244797	0.735409	-0.708483	-0.226528	0.679018	-0.712088	-0.157947	0.702342	-0.716833	-0.183906	0.757816	-0.714056	-0.174279	0.483431	-0.707286	-0.165155	0.461731	-0.591722	-0.280027	0.332947	-0.708529	-0.295509	0.296806	-0.697932	-0.236446	0.276784	-0.701051	-0.227796	0.318946	-0.710449	-0.319324	0.153601	-0.680129	-0.290528	0.165164	-0.605518	-0.368013	0.163668	-0.637857	-0.263383	0.047092	-0.690134	-0.228667	0.046303	-0.620274	-0.213903	0.037124	-0.631764	
255	1.2750	-0.302208	1.380744	-0.519053	-0.220004	1.389508	-0.668546	-0.227366	1.368956	-0.363255	-0.172311	1.335746	-0.522994	-0.153472	0.906956	-0.413141	-0.162022	0.905216	-0.647252	-0.198781	0.987490	-0.394829	-0.203289	0.982526	-0.665296	-0.313586	0.941847	-0.479273	-0.318534	0.940541	-0.567555	-0.322440	0.938117	-0.525972	-0.227552	0.738800	-0.348458	-0.213127	0.678276	-0.350228	-0.144118	0.702683	-0.351774	-0.166084	0.758842	-0.350916	-0.166940	0.470126	-0.362242	-0.159630	0.455420	-0.481572	-0.261924	0.352217	-0.345272	-0.281673	0.315023	-0.354601	-0.225283	0.291878	-0.349386	-0.209419	0.328903	-0.344596	-0.298404	0.140059	-0.379215	-0.349481	0.142019	-0.421212	-0.227218	0.040355	-0.368118	-0.193200	0.043976	-0.433628	-0.172188	0.035538	-0.432836	-0.244661	0.728770	-0.708537	-0.226254	0.672435	-0.712361	-0.157728	0.695956	-0.717078	-0.183825	0.751346	-0.714076	-0.172894	0.476805	-0.707750	-0.164015	0.455062	-0.592242	-0.279849	0.327107	-0.709556	-0.295781	0.291150	-0.698789	-0.237032	0.270546	-0.701250	-0.227765	0.312488	-0.710710	-0.322454	0.149066	-0.680326	-0.294033	0.160479	-0.605306	-0.371420	0.158915	-0.638270	-0.264990	0.044107	-0.690217	-0.230319	0.044359	-0.619585	-0.215154	0.036507	-0.630539	
256	1.2800	-0.302063	1.373954	-0.519225	-0.219502	1.382482	-0.668860	-0.227135	1.361846	-0.363167	-0.171902	1.328610	-0.523083	-0.153836	0.900164	-0.412795	-0.162065	0.898197	-0.647161	-0.199188	0.980820	-0.394602	-0.203259	0.975495	-0.665161	-0.314014	0.935445	-0.479181	-0.318847	0.933927	-0.567479	-0.322814	0.931588	-0.525881	-0.227432	0.732000	-0.347969	-0.212788	0.671512	-0.349705	-0.143868	0.696159	-0.351422	-0.166037	0.752254	-0.350614	-0.165222	0.463165	-0.361973	-0.158390	0.448752	-0.480991	-0.261542	0.346144	-0.344807	-0.281901	0.309334	-0.353939	-0.225815	0.285310	-0.349293	-0.209408	0.322127	-0.344539	-0.302407	0.135948	-0.379769	-0.353259	0.137275	-0.421051	-0.228914	0.039429	-0.367690	-0.194266	0.043883	-0.434002	-0.172360	0.035462	-0.433692	-0.244514	0.721936	-0.708563	-0.225978	0.665654	-0.712619	-0.157520	0.689374	-0.717436	-0.183753	0.744678	-0.714165	-0.171424	0.469922	-0.708212	-0.163003	0.448170	-0.592789	-0.279931	0.321181	-0.710802	-0.296429	0.285507	-0.699899	-0.238049	0.264212	-0.701385	-0.228042	0.305877	-0.710995	-0.326318	0.144847	-0.680452	-0.298744	0.156265	-0.604957	-0.375554	0.154267	-0.638941	-0.266692	0.042182	-0.690495	-0.231732	0.043669	-0.618987	-0.215754	0.036412	-0.629467	
257	1.2850	-0.301934	1.367051	-0.519417	-0.219028	1.375399	-0.669213	-0.227003	1.354672	-0.363050	-0.171402	1.321395	-0.523181	-0.154172	0.893209	-0.412383	-0.162072	0.891061	-0.647129	-0.199634	0.973933	-0.394278	-0.203256	0.968280	-0.665105	-0.314477	0.928779	-0.479074	-0.319190	0.927040	-0.567373	-0.323202	0.924785	-0.525772	-0.227256	0.724972	-0.347498	-0.212361	0.664530	-0.349129	-0.143541	0.689464	-0.350910	-0.165949	0.745473	-0.350211	-0.163385	0.455951	-0.361699	-0.157107	0.441863	-0.480286	-0.261351	0.340110	-0.344304	-0.282416	0.303767	-0.353272	-0.226670	0.278735	-0.349370	-0.209647	0.315295	-0.344621	-0.306471	0.132043	-0.380355	-0.357150	0.132775	-0.420835	-0.230105	0.039304	-0.367297	-0.195246	0.044087	-0.433511	-0.172691	0.035383	-0.433611	-0.244345	0.714903	-0.708557	-0.225682	0.658678	-0.712847	-0.157311	0.682597	-0.717889	-0.183675	0.737813	-0.714326	-0.169854	0.462778	-0.708668	-0.162111	0.441064	-0.593390	-0.280313	0.315259	-0.712214	-0.297493	0.279968	-0.701197	-0.239523	0.257880	-0.701442	-0.228674	0.299224	-0.711274	-0.330594	0.140955	-0.680541	-0.304470	0.152616	-0.604505	-0.380110	0.149797	-0.639818	-0.268101	0.041395	-0.690793	-0.232537	0.043641	-0.618811	-0.215988	0.036403	-0.628839	
258	1.2900	-0.301831	1.360092	-0.519638	-0.218603	1.368319	-0.669632	-0.226988	1.347490	-0.362883	-0.170849	1.314159	-0.523297	-0.154462	0.886132	-0.411913	-0.162035	0.883854	-0.647171	-0.200117	0.966852	-0.393844	-0.203296	0.960905	-0.665154	-0.314975	0.921853	-0.478956	-0.319564	0.919894	-0.567241	-0.323600	0.917720	-0.525655	-0.226998	0.717733	-0.347043	-0.211809	0.657364	-0.348497	-0.143105	0.682627	-0.350253	-0.165791	0.738529	-0.349716	-0.161462	0.448584	-0.361406	-0.155771	0.434810	-0.479443	-0.261257	0.334201	-0.343758	-0.283067	0.298383	-0.352633	-0.227699	0.272276	-0.349630	-0.210013	0.308564	-0.344846	-0.310113	0.128205	-0.380892	-0.360960	0.128467	-0.420576	-0.231289	0.038881	-0.367314	-0.196505	0.044296	-0.433299	-0.173376	0.035298	-0.433734	-0.244148	0.707684	-0.708535	-0.225361	0.651513	-0.713056	-0.157084	0.675632	-0.718406	-0.183577	0.730757	-0.714544	-0.168194	0.455403	-0.709105	-0.161321	0.433753	-0.594074	-0.280942	0.309456	-0.713708	-0.298847	0.274590	-0.702540	-0.241357	0.251693	-0.701408	-0.229599	0.292701	-0.711533	-0.334779	0.137280	-0.680678	-0.310654	0.149529	-0.604101	-0.384751	0.145536	-0.640862	-0.268943	0.041199	-0.690913	-0.233258	0.043910	-0.619122	-0.216260	0.036362	-0.628737	
